<?xml version="1.0" encoding="UTF-8" standalone="no"?>
<!-- Generated by IcoMoon.io -->

<svg
   xmlns:dc="http://purl.org/dc/elements/1.1/"
   xmlns:cc="http://creativecommons.org/ns#"
   xmlns:rdf="http://www.w3.org/1999/02/22-rdf-syntax-ns#"
   xmlns:svg="http://www.w3.org/2000/svg"
   xmlns="http://www.w3.org/2000/svg"
   xmlns:sodipodi="http://sodipodi.sourceforge.net/DTD/sodipodi-0.dtd"
   xmlns:inkscape="http://www.inkscape.org/namespaces/inkscape"
   version="1.1"
   width="32"
   height="32"
   viewBox="0 0 32 32"
   id="svg2"
   inkscape:version="0.48.4 r9939"
   sodipodi:docname="coffee.svg">
  <metadata
     id="metadata19">
    <rdf:RDF>
      <cc:Work
         rdf:about="">
        <dc:format>image/svg+xml</dc:format>
        <dc:type
           rdf:resource="http://purl.org/dc/dcmitype/StillImage" />
      </cc:Work>
    </rdf:RDF>
  </metadata>
  <defs
     id="defs17" />
  <sodipodi:namedview
     pagecolor="#ffffff"
     bordercolor="#666666"
     borderopacity="1"
     objecttolerance="10"
     gridtolerance="10"
     guidetolerance="10"
     inkscape:pageopacity="0"
     inkscape:pageshadow="2"
     inkscape:window-width="1920"
     inkscape:window-height="1056"
     id="namedview15"
     showgrid="false"
     inkscape:zoom="7.375"
     inkscape:cx="0.34488136"
     inkscape:cy="16"
     inkscape:window-x="0"
     inkscape:window-y="24"
     inkscape:window-maximized="1"
     inkscape:current-layer="svg2" />
  <g
     id="icomoon-ignore" />
  <path
     d="M23.97 19.732h4.292v-8.53h-24.524v7.997c0 5.594 4.535 10.129 10.129 10.129 5.414 0 9.824-4.251 10.102-9.596zM23.997 12.268h3.199v6.397h-3.199v-6.398zM13.867 28.262c-4.997 0-9.063-4.066-9.063-9.063v-6.931h18.126v6.931c0 4.998-4.066 9.063-9.063 9.063z"
     id="path5"
     fill="#dcd8d0" />
  <path
     d="M3.738 30.394h20.259v-1.066h-20.259z"
     id="path7"
     fill="#dcd8d0" />
  <path
     d="M9.069 3.205h1.066v4.798h-1.066v-4.798z"
     id="path9"
     fill="#dcd8d0" />
  <path
     d="M17.599 3.205h1.066v4.798h-1.066v-4.798z"
     id="path11"
     fill="#dcd8d0" />
  <path
     d="M13.334 1.606h1.066v6.398h-1.066v-6.397z"
     id="path13"
     fill="#dcd8d0" />
</svg>
